PathFileType	4	(X/Y/Z)	 1.9Hzhigh3min.trc
DataRate	CameraRate	NumFrames	NumMarkers	Units	OrigDataRate	OrigDataStartFrame	OrigNumFrames
200	200	7	43	m	200	1	1000
Frame#	Time	C7			LSH			RSH			MAN			RASI			LASI			HIPR			HIPL			RPSI			LPSI			COX			RTHI1			RTHI2			RTHI3			RTHI4			RLKN			RMKN			RSHA1			RSHA2			RSHA3			RSHA4			RLMAL			RMMAL			RHEEL			RMET5			RMET1			RTOE			LTHI1			LTHI2			LTHI3			LTHI4			LLKN			LMKN			LSHA1			LSHA2			LSHA3			LSHA4			LLMAL			LMMAL			LHEEL			LMET5			LMET1			LTOE			
		X1	Y1	Z1	X2	Y2	Z2	X3	Y3	Z3	X4	Y4	Z4	X5	Y5	Z5	X6	Y6	Z6	X7	Y7	Z7	X8	Y8	Z8	X9	Y9	Z9	X10	Y10	Z10	X11	Y11	Z11	X12	Y12	Z12	X13	Y13	Z13	X14	Y14	Z14	X15	Y15	Z15	X16	Y16	Z16	X17	Y17	Z17	X18	Y18	Z18	X19	Y19	Z19	X20	Y20	Z20	X21	Y21	Z21	X22	Y22	Z22	X23	Y23	Z23	X24	Y24	Z24	X25	Y25	Z25	X26	Y26	Z26	X27	Y27	Z27	X28	Y28	Z28	X29	Y29	Z29	X30	Y30	Z30	X31	Y31	Z31	X32	Y32	Z32	X33	Y33	Z33	X34	Y34	Z34	X35	Y35	Z35	X36	Y36	Z36	X37	Y37	Z37	X38	Y38	Z38	X39	Y39	Z39	X40	Y40	Z40	X41	Y41	Z41	X42	Y42	Z42	X43	Y43	Z43	
1	0.0050	-0.301398	1.446584	-0.613864	-0.220451	1.446477	-0.761238	-0.245126	1.437222	-0.459806	-0.174403	1.399255	-0.613681	-0.136935	0.980245	-0.471659	-0.131265	0.963058	-0.706335	-0.177325	1.068189	-0.461321	-0.168288	1.044309	-0.729057	-0.288036	1.022403	-0.547247	-0.287915	1.014711	-0.635468	-0.294388	1.015723	-0.594207	-0.240481	0.825471	-0.404234	-0.240412	0.763366	-0.405169	-0.167648	0.771082	-0.400942	-0.176242	0.830884	-0.400875	-0.239998	0.549431	-0.420092	-0.223896	0.531004	-0.543582	-0.309641	0.416092	-0.407215	-0.316812	0.374574	-0.415752	-0.253547	0.407723	-0.396656	-0.258307	0.367449	-0.399463	-0.280502	0.197488	-0.422059	-0.248718	0.196971	-0.492477	-0.323872	0.202818	-0.472925	-0.228945	0.080243	-0.398072	-0.186501	0.072955	-0.455028	-0.173447	0.047097	-0.451999	-0.242740	0.807998	-0.758575	-0.240455	0.748555	-0.759528	-0.168019	0.752423	-0.762335	-0.178083	0.812750	-0.762662	-0.227980	0.537677	-0.740425	-0.241539	0.517505	-0.620627	-0.289388	0.365792	-0.758331	-0.294675	0.325677	-0.750977	-0.232847	0.323982	-0.746023	-0.235671	0.367391	-0.752909	-0.279142	0.182195	-0.735502	-0.260720	0.194997	-0.660653	-0.329245	0.194332	-0.701686	-0.230188	0.063613	-0.734604	-0.205005	0.060076	-0.662787	-0.193413	0.040736	-0.670130	
2	0.0100	-0.301710	1.452960	-0.613468	-0.220869	1.454200	-0.760237	-0.245479	1.444436	-0.460102	-0.174734	1.406738	-0.613397	-0.136000	0.986884	-0.472303	-0.130604	0.969554	-0.706093	-0.175315	1.075419	-0.461942	-0.166657	1.051661	-0.728997	-0.286664	1.031268	-0.547683	-0.286527	1.023720	-0.636097	-0.293000	1.024879	-0.594826	-0.241152	0.833379	-0.405166	-0.241762	0.771224	-0.405965	-0.168940	0.778204	-0.401406	-0.176910	0.838035	-0.401594	-0.241644	0.556855	-0.420568	-0.223954	0.538543	-0.543780	-0.310255	0.422983	-0.407784	-0.316910	0.381241	-0.416258	-0.254166	0.415138	-0.396831	-0.258564	0.374831	-0.399450	-0.280062	0.204531	-0.421892	-0.247052	0.204109	-0.491874	-0.322318	0.210056	-0.473738	-0.229222	0.087284	-0.397263	-0.185863	0.079672	-0.453235	-0.173366	0.052908	-0.449502	-0.242558	0.815972	-0.758632	-0.241156	0.756497	-0.759904	-0.168694	0.759282	-0.762556	-0.177846	0.819753	-0.762534	-0.231010	0.544764	-0.740493	-0.243205	0.524007	-0.620662	-0.290413	0.372268	-0.757198	-0.294746	0.332177	-0.749768	-0.232880	0.331470	-0.746302	-0.236638	0.374803	-0.753183	-0.276278	0.189031	-0.734985	-0.256914	0.202374	-0.660598	-0.326115	0.201136	-0.700760	-0.228023	0.069771	-0.734142	-0.202514	0.065200	-0.662717	-0.192362	0.043236	-0.669967	
3	0.0150	-0.301951	1.459384	-0.612939	-0.220687	1.461599	-0.759410	-0.245712	1.451179	-0.460174	-0.174836	1.413727	-0.613130	-0.135272	0.993120	-0.472831	-0.130198	0.975664	-0.705968	-0.173588	1.082092	-0.462454	-0.165298	1.058405	-0.729093	-0.285509	1.039705	-0.548264	-0.285427	1.032282	-0.636741	-0.291869	1.033629	-0.595469	-0.241924	0.840811	-0.405971	-0.242968	0.778639	-0.406686	-0.170139	0.785143	-0.401773	-0.177649	0.844958	-0.402234	-0.242764	0.563771	-0.420896	-0.223513	0.545425	-0.543600	-0.310795	0.429455	-0.408204	-0.317236	0.387649	-0.416694	-0.254736	0.421854	-0.396983	-0.258975	0.381536	-0.399572	-0.280316	0.211148	-0.422077	-0.246506	0.210756	-0.491747	-0.321848	0.216580	-0.474590	-0.229133	0.094300	-0.396792	-0.185278	0.086565	-0.452195	-0.172655	0.059777	-0.448295	-0.242529	0.823157	-0.758786	-0.241896	0.763672	-0.760242	-0.169397	0.765521	-0.762819	-0.177776	0.826101	-0.762590	-0.233028	0.551448	-0.740544	-0.243908	0.530254	-0.620800	-0.291176	0.378668	-0.756160	-0.294855	0.338689	-0.748678	-0.233033	0.338585	-0.746356	-0.237395	0.381858	-0.753348	-0.274707	0.195536	-0.734210	-0.254229	0.209494	-0.660342	-0.324138	0.207533	-0.699477	-0.226788	0.075696	-0.733076	-0.200408	0.071367	-0.662177	-0.190995	0.048442	-0.669030	
4	0.0200	-0.302112	1.465582	-0.612534	-0.220611	1.468830	-0.758693	-0.245968	1.457786	-0.460171	-0.174925	1.420619	-0.612888	-0.134606	0.999271	-0.473348	-0.129860	0.981690	-0.705884	-0.171967	1.088636	-0.462930	-0.164031	1.065005	-0.729228	-0.284443	1.048006	-0.548839	-0.284403	1.040689	-0.637387	-0.290829	1.042213	-0.596074	-0.242680	0.848120	-0.406759	-0.244097	0.785932	-0.407382	-0.171265	0.792023	-0.402120	-0.178381	0.851827	-0.402844	-0.243760	0.570561	-0.421210	-0.222963	0.552147	-0.543381	-0.311326	0.435854	-0.408640	-0.317585	0.393987	-0.417171	-0.255306	0.428448	-0.397154	-0.259417	0.388122	-0.399748	-0.280647	0.217686	-0.422314	-0.246142	0.217313	-0.491702	-0.321560	0.222959	-0.475385	-0.229070	0.101259	-0.396390	-0.184773	0.093417	-0.451321	-0.172000	0.066539	-0.447307	-0.242577	0.830136	-0.758971	-0.242647	0.770640	-0.760564	-0.170118	0.771630	-0.763093	-0.177788	0.832310	-0.762703	-0.234796	0.558013	-0.740582	-0.244372	0.536448	-0.620914	-0.291899	0.385021	-0.755174	-0.295007	0.345154	-0.747634	-0.233220	0.345572	-0.746347	-0.238107	0.388779	-0.753452	-0.273387	0.201967	-0.733379	-0.251861	0.216498	-0.660005	-0.322421	0.213871	-0.698172	-0.225747	0.081624	-0.731921	-0.198474	0.077641	-0.661449	-0.189575	0.053820	-0.667838	
5	0.0250	-0.302184	1.471630	-0.612190	-0.220364	1.475747	-0.758184	-0.246146	1.464004	-0.460019	-0.174910	1.427229	-0.612673	-0.134118	1.005130	-0.473802	-0.129724	0.987437	-0.705901	-0.170626	1.094763	-0.463311	-0.163014	1.071141	-0.729475	-0.283589	1.055918	-0.549467	-0.283615	1.048671	-0.638035	-0.290012	1.050398	-0.596692	-0.243446	0.855043	-0.407465	-0.245052	0.792854	-0.408010	-0.172245	0.798734	-0.402404	-0.179121	0.858509	-0.403384	-0.244367	0.576953	-0.421449	-0.222058	0.558358	-0.542957	-0.311809	0.441974	-0.409034	-0.318050	0.400124	-0.417666	-0.255844	0.434578	-0.397340	-0.259954	0.394256	-0.400042	-0.281378	0.223924	-0.422758	-0.246493	0.223531	-0.491966	-0.321958	0.228878	-0.476133	-0.228905	0.108114	-0.396251	-0.184424	0.100265	-0.451001	-0.171295	0.073510	-0.446994	-0.242804	0.836489	-0.759232	-0.243429	0.776985	-0.760845	-0.170873	0.777305	-0.763411	-0.177988	0.838057	-0.762976	-0.235797	0.564240	-0.740600	-0.244093	0.542456	-0.621037	-0.292458	0.391259	-0.754277	-0.295240	0.351537	-0.746683	-0.233508	0.352198	-0.746151	-0.238672	0.395355	-0.753423	-0.272939	0.208146	-0.732372	-0.250394	0.223227	-0.659476	-0.321551	0.219954	-0.696692	-0.225296	0.087453	-0.730425	-0.196996	0.084328	-0.660309	-0.188252	0.060210	-0.666176	
6	0.0300	-0.302179	1.477555	-0.611915	-0.219986	1.482354	-0.757887	-0.246573	1.469965	-0.459900	-0.174812	1.433561	-0.612477	-0.133793	1.010761	-0.474232	-0.129760	0.992971	-0.706022	-0.169576	1.100551	-0.463603	-0.162254	1.076909	-0.729817	-0.282965	1.063436	-0.550064	-0.283041	1.056218	-0.638671	-0.289469	1.058094	-0.597305	-0.244150	0.861627	-0.408119	-0.245801	0.799435	-0.408566	-0.173026	0.805273	-0.402655	-0.179824	0.865018	-0.403860	-0.244641	0.583018	-0.421639	-0.220901	0.564143	-0.542435	-0.312255	0.447898	-0.409465	-0.318560	0.406084	-0.418227	-0.256362	0.440398	-0.397576	-0.260539	0.400088	-0.400436	-0.282301	0.229945	-0.423315	-0.247286	0.229511	-0.492428	-0.322762	0.234502	-0.476776	-0.228808	0.114780	-0.396360	-0.184327	0.106949	-0.451123	-0.170771	0.080417	-0.447265	-0.243233	0.842308	-0.759571	-0.244227	0.782794	-0.761087	-0.171663	0.782659	-0.763775	-0.178408	0.843461	-0.763408	-0.236181	0.570155	-0.740590	-0.243187	0.548319	-0.621114	-0.292914	0.397357	-0.753488	-0.295577	0.357756	-0.745823	-0.233875	0.358446	-0.745787	-0.239123	0.401575	-0.753233	-0.273078	0.214116	-0.731244	-0.249712	0.229652	-0.658748	-0.321326	0.225898	-0.695177	-0.225390	0.093140	-0.728636	-0.196084	0.091073	-0.658871	-0.187263	0.066971	-0.664242	
7	0.0350	-0.302093	1.483249	-0.611807	-0.219667	1.488593	-0.757812	-0.246762	1.475565	-0.459535	-0.174678	1.439657	-0.612312	-0.133646	1.016150	-0.474643	-0.129981	0.998294	-0.706253	-0.168864	1.105984	-0.463806	-0.161790	1.082310	-0.730266	-0.282574	1.070482	-0.550648	-0.282707	1.063258	-0.639285	-0.289165	1.065266	-0.597901	-0.244771	0.867821	-0.408701	-0.246314	0.805631	-0.409046	-0.173582	0.811598	-0.402875	-0.180456	0.871305	-0.404277	-0.244538	0.588721	-0.421777	-0.219510	0.569459	-0.541827	-0.312633	0.453624	-0.409924	-0.319094	0.411876	-0.418851	-0.256827	0.445887	-0.397857	-0.261157	0.405602	-0.400926	-0.283422	0.235719	-0.423981	-0.248500	0.235228	-0.493081	-0.323940	0.239890	-0.477327	-0.228905	0.121175	-0.396722	-0.184540	0.113409	-0.451714	-0.170628	0.086963	-0.447997	-0.243895	0.847553	-0.759971	-0.245032	0.788033	-0.761282	-0.172474	0.787710	-0.764217	-0.179072	0.848536	-0.764014	-0.235938	0.575732	-0.740560	-0.241628	0.554015	-0.621132	-0.293273	0.403272	-0.752802	-0.296001	0.363779	-0.745031	-0.234320	0.364263	-0.745251	-0.239457	0.407376	-0.752877	-0.273778	0.219863	-0.730008	-0.249811	0.235742	-0.657816	-0.321730	0.231719	-0.693664	-0.225997	0.098713	-0.726715	-0.195878	0.097648	-0.657093	-0.186927	0.073583	-0.662018	
